<svg width="511.985" height="511.985" xmlns="http://www.w3.org/2000/svg" xml:space="preserve" version="1.1">

 <g>
  <title>Layer 1</title>
  <path id="svg_1" fill="#934acc" d="m491.859,156.348c-12.891,-30.483 -31.342,-57.865 -54.842,-81.372c-23.516,-23.5 -50.904,-41.96 -81.373,-54.85c-31.56,-13.351 -65.091,-20.125 -99.652,-20.125c-34.554,0 -68.083,6.773 -99.645,20.125c-30.483,12.89 -57.865,31.351 -81.373,54.85c-23.499,23.507 -41.959,50.889 -54.85,81.372c-13.35,31.562 -20.124,65.092 -20.124,99.645c0,34.56 6.773,68.091 20.125,99.652c12.89,30.469 31.351,57.857 54.85,81.357c23.507,23.516 50.889,41.967 81.373,54.857c31.562,13.344 65.091,20.125 99.645,20.125c34.561,0 68.092,-6.781 99.652,-20.125c30.469,-12.891 57.857,-31.342 81.373,-54.857c23.5,-23.5 41.951,-50.889 54.842,-81.357c13.344,-31.561 20.125,-65.092 20.125,-99.652c-0.001,-34.553 -6.782,-68.083 -20.126,-99.645z"/>
  <path id="svg_2" fill="#E6E9ED" d="m0.102,263.18c0.875,32.014 7.593,63.092 20.023,92.465c12.89,30.469 31.351,57.857 54.85,81.357c23.507,23.516 50.889,41.967 81.373,54.857c31.562,13.344 65.091,20.125 99.645,20.125c34.561,0 68.092,-6.781 99.652,-20.125c30.469,-12.891 57.857,-31.342 81.373,-54.857c23.5,-23.5 41.951,-50.889 54.842,-81.357c12.438,-29.373 19.156,-60.451 20.031,-92.465l-511.789,0z"/>
  <path id="svg_3" fill="#434A54" d="m510.765,281.211c0.812,-8.344 1.219,-16.75 1.219,-25.218c0,-9.516 -0.516,-18.953 -1.531,-28.289c-12.719,1.961 -30.984,4.516 -53.998,7.054c-43.688,4.82 -113.904,10.57 -200.463,10.57c-86.552,0 -156.776,-5.75 -200.455,-10.57c-23.022,-2.539 -41.28,-5.093 -53.998,-7.054c-1.023,9.336 -1.539,18.774 -1.539,28.289c0,8.468 0.406,16.875 1.219,25.218c41.53,6.25 133.027,17.436 254.773,17.436s213.242,-11.186 254.773,-17.436z"/>
  <path id="svg_4" fill="#E6E9ED" d="m309.334,266.656c0,29.459 -23.891,53.334 -53.342,53.334c-29.452,0 -53.334,-23.875 -53.334,-53.334c0,-29.453 23.882,-53.327 53.334,-53.327c29.451,0.001 53.342,23.875 53.342,53.327z"/>
  <path id="svg_5" fill="#434A54" d="m255.992,170.66c-52.936,0 -95.997,43.069 -95.997,95.997s43.062,95.988 95.997,95.988s95.996,-43.061 95.996,-95.988c0,-52.928 -43.06,-95.997 -95.996,-95.997zm0,138.675c-23.522,0 -42.663,-19.156 -42.663,-42.678c0,-23.523 19.14,-42.663 42.663,-42.663c23.531,0 42.654,19.14 42.654,42.663c0,23.521 -19.123,42.678 -42.654,42.678z"/>
  <path id="svg_6" fill="#FFFFFF" opacity="0.2" d="m491.859,156.348c-12.891,-30.483 -31.342,-57.865 -54.842,-81.372c-23.516,-23.5 -50.904,-41.96 -81.373,-54.85c-31.56,-13.351 -65.091,-20.125 -99.652,-20.125c-3.57,0 -7.125,0.078 -10.664,0.219c30.789,1.25 60.662,7.93 88.974,19.906c30.498,12.89 57.873,31.351 81.371,54.85c23.5,23.507 41.969,50.889 54.857,81.372c13.359,31.562 20.109,65.092 20.109,99.646c0,34.56 -6.75,68.091 -20.109,99.652c-12.889,30.469 -31.357,57.857 -54.857,81.357c-23.498,23.516 -50.873,41.967 -81.371,54.857c-28.312,11.969 -58.186,18.656 -88.974,19.906c3.539,0.141 7.093,0.219 10.664,0.219c34.561,0 68.092,-6.781 99.652,-20.125c30.469,-12.891 57.857,-31.342 81.373,-54.857c23.5,-23.5 41.951,-50.889 54.842,-81.357c13.344,-31.561 20.125,-65.092 20.125,-99.652c0,-34.554 -6.781,-68.084 -20.125,-99.646z"/>
  <path id="svg_7" opacity="0.1" d="m20.125,355.645c12.89,30.469 31.351,57.857 54.85,81.357c23.507,23.516 50.889,41.967 81.373,54.857c31.562,13.344 65.091,20.125 99.645,20.125c3.57,0 7.125,-0.078 10.664,-0.219c-30.789,-1.25 -60.67,-7.938 -88.982,-19.906c-30.483,-12.891 -57.857,-31.342 -81.364,-54.857c-23.507,-23.5 -41.96,-50.889 -54.858,-81.357c-13.352,-31.56 -20.117,-65.091 -20.117,-99.652c0,-34.554 6.765,-68.084 20.116,-99.646c12.898,-30.483 31.351,-57.866 54.858,-81.364c23.507,-23.507 50.881,-41.968 81.364,-54.858c28.312,-11.976 58.193,-18.656 88.982,-19.906c-3.539,-0.14 -7.094,-0.218 -10.664,-0.218c-34.554,0 -68.083,6.773 -99.645,20.125c-30.483,12.89 -57.865,31.351 -81.373,54.858c-23.499,23.499 -41.959,50.881 -54.85,81.364c-13.35,31.562 -20.124,65.092 -20.124,99.645c0,34.56 6.774,68.092 20.125,99.652z"/>
 </g>
</svg>